<svg width="240" height="240" viewBox="0 0 240 240" fill="none" xmlns="http://www.w3.org/2000/svg">
<path d="M137 157.205V166.87C137 168.923 135.754 170.772 133.851 171.543L123.036 175.923L112.221 180.303L103.935 183.659C100.62 185.001 97 182.562 97 178.986V145.394C97 139.263 97 136.197 95.8582 133.44C94.7164 130.684 92.5487 128.516 88.2132 124.181L58.6274 94.5948C56.4297 92.3971 55.3309 91.2983 54.5002 90.0461C53.4299 88.4327 52.6821 86.6273 52.2981 84.7296C52 83.2568 52 81.7028 52 78.5948C52 71.4861 52 67.9317 53.1804 65.1348C54.7004 61.5335 57.5661 58.6678 61.1674 57.1478C63.9643 55.9674 67.5186 55.9674 74.6274 55.9674H157.373C164.481 55.9674 168.036 55.9674 170.833 57.1478C174.434 58.6678 177.3 61.5335 178.82 65.1348C180 67.9317 180 71.4861 180 78.5948C180 79.9865 180.027 80.5901 180 81.4909" stroke="#808080" stroke-width="10" stroke-linecap="round"/>
<path d="M164.996 103.967V155.967" stroke="#808080" stroke-width="10" stroke-linecap="round" stroke-linejoin="round"/>
<path d="M191 129.963L139 129.963" stroke="#808080" stroke-width="10" stroke-linecap="round" stroke-linejoin="round"/>
</svg>
