<svg width="240" height="240" viewBox="0 0 240 240" fill="none" xmlns="http://www.w3.org/2000/svg">
<path d="M102 174H99C70.7157 174 56.5736 174 47.7868 165.213C39 156.426 39 142.284 39 114V108C39 79.7157 39 65.5736 47.7868 56.7868C56.5736 48 70.7157 48 99 48H141C169.284 48 183.426 48 192.213 56.7868C201 65.5736 201 79.7157 201 108V126" stroke="#CCCCCC" stroke-width="10" stroke-linecap="round"/>
<path d="M40.3733 127.349L66.027 92.379C75.6165 79.3069 95.1402 79.3069 104.73 92.3789L132.285 129.942" stroke="#CCCCCC" stroke-width="10" stroke-linecap="round"/>
<path d="M162.823 111.371C164.685 113.41 167.847 113.554 169.887 111.693C171.926 109.831 172.07 106.668 170.208 104.629L166.516 108L162.823 111.371ZM156.853 97.4157L153.16 100.787L162.823 111.371L166.516 108L170.208 104.629L160.546 94.0446L156.853 97.4157ZM112.207 107.49L115.899 110.861L125.096 100.787L121.404 97.4157L117.711 94.0446L108.514 104.119L112.207 107.49ZM156.853 97.4157L160.546 94.0446C149.046 81.4476 129.211 81.4476 117.711 94.0446L121.404 97.4157L125.096 100.787C132.631 92.5336 145.626 92.5336 153.16 100.787L156.853 97.4157Z" fill="#CCCCCC"/>
<path d="M168 204V141M168 141L135 174M168 141L201 174" stroke="#CCCCCC" stroke-width="10" stroke-linecap="round" stroke-linejoin="round"/>
</svg>
