<svg width="40" height="40" viewBox="0 0 40 40" fill="none" xmlns="http://www.w3.org/2000/svg">
<path d="M0 10C0 4.47715 4.47715 0 10 0H30C35.5228 0 40 4.47715 40 10V30C40 35.5228 35.5228 40 30 40H10C4.47715 40 0 35.5228 0 30V10Z" fill="black"/>
<path fill-rule="evenodd" clip-rule="evenodd" d="M12.709 28.3461C12.709 28.9425 12.3459 29.4787 11.7921 29.7002L8.87483 30.8668C7.91692 31.2499 6.875 30.5444 6.875 29.5127V12.238C6.875 11.6416 7.23811 11.1053 7.79184 10.8839L10.7092 9.71726C11.6671 9.33419 12.709 10.0397 12.709 11.0713V28.3461ZM23.2702 10.6092C23.9195 10.7715 24.375 11.3548 24.375 12.0241V29.4337C24.375 30.3824 23.4835 31.0785 22.5631 30.8485L16.7298 29.3909C16.0805 29.2286 15.625 28.6453 15.625 27.976V10.5664C15.625 9.61769 16.5165 8.92155 17.4369 9.15154L23.2702 10.6092ZM33.125 27.763C33.125 28.3594 32.7618 28.8957 32.208 29.1171L29.2917 30.2831C28.3338 30.666 27.292 29.9606 27.292 28.929V11.6539C27.292 11.0576 27.6551 10.5213 28.2088 10.2999L31.1251 9.13344C32.083 8.7503 33.125 9.45578 33.125 10.4875V27.763Z" fill="#FAFAFA"/>
</svg>
