<svg width="24" height="24" viewBox="0 0 24 24" fill="none" xmlns="http://www.w3.org/2000/svg">
<path d="M14.25 4.49793H9.75C6.56802 4.49793 4.97703 4.49793 3.98851 5.50213C3 6.50634 3 8.12258 3 11.3551V12.645C3 15.8775 3 17.4937 3.98851 18.4979C4.97703 19.5021 6.56802 19.5021 9.75 19.5021H14.25C17.432 19.5021 19.023 19.5021 20.0115 18.4979C21 17.4937 21 15.8775 21 12.645L21 11.3551C21 8.12258 21 6.50634 20.0115 5.50213C19.023 4.49793 17.432 4.49793 14.25 4.49793Z" stroke="#808080" stroke-width="1.8"/>
<path d="M9 19.5V4.5" stroke="#808080" stroke-width="1.8" stroke-linecap="round"/>
</svg>
